#!OML:ASF E:\Mandelcareful walks\Project 1\Capture day 1\Session 1\Subject1.ASF
:FULLY-SPECIFIED
:DEGREES
367
root -14.6025 13.4946 0.534859 -169.783 78.6056 173.467
lowerback 24.4946 2.00259 -8.09448
upperback 5.13698 0.869205 -2.10936
thorax -7.97963 0.772914 2.00683
lowerneck -19.3852 -0.583452 -6.81609
upperneck 13.4201 0.093601 5.55465
head 7.28287 0.224177 2.95407
rclavicle 8.74653e-015 -1.90833e-014
rhumerus 0.920877 41.7437 -48.1847
rradius 110.737
rwrist -21.0269
rhand -22.9597 -9.25505
rfingers 7.12502
rthumb 3.48199 -39.2064
lclavicle 8.74653e-015 -1.90833e-014
lhumerus -20.5746 -47.7256 76.1387
lradius 87.6709
lwrist 13.3581
lhand -25.021 -19.1343
lfingers 7.12502
lthumb 1.49128 10.8403
rfemur -50.2805 -34.6049 6.56206
rtibia 81.5357
rfoot -26.677 -2.18582
rtoes -22.6285
lfemur -67.5294 15.3075 -15.3602
ltibia 81.1716
lfoot -24.0122 7.9686
ltoes -11.8003
368
root -14.5939 13.5315 0.466965 -169.997 80.0024 173.541
lowerback 24.9273 1.91678 -7.72946
upperback 5.29427 0.83745 -1.92749
thorax -8.02363 0.751238 2.00595
lowerneck -20.0426 -0.711219 -7.11223
upperneck 13.4668 0.0285609 5.64298
head 7.4128 0.19258 3.03089
rclavicle -3.97569e-015 4.13472e-014
rhumerus -3.83097 42.3016 -53.1422
rradius 109.431
rwrist -20.87
rhand -22.5486 -9.37754
rfingers 7.12502
rthumb 3.87905 -39.322
lclavicle -3.97569e-015 4.13472e-014
lhumerus -20.0822 -46.6342 75.5441
lradius 87.9003
lwrist 14.0452
lhand -25.2658 -19.2407
lfingers 7.12502
lthumb 1.25484 10.7353
rfemur -49.9225 -33.6888 6.44426
rtibia 80.5838
rfoot -26.8601 -2.22722
rtoes -21.8134
lfemur -66.6047 15.9086 -15.3219
ltibia 81.0825
lfoot -24.6828 8.31355
ltoes -10.6986
369
root -14.578 13.5706 0.39876 -170.31 81.2798 173.419
lowerback 25.1473 1.83376 -7.63858
upperback 5.37872 0.760599 -1.61126
thorax -8.03814 0.711301 2.32736
lowerneck -20.4347 -0.693132 -7.24059
upperneck 13.6996 0.150817 5.42185
head 7.54718 0.223782 2.99927
rclavicle 3.53837e-014 2.10712e-014
rhumerus -8.26052 42.0022 -57.7482
rradius 107.973
rwrist -21.3999
rhand -21.3819 -8.98249
rfingers 7.12502
rthumb 5.00561 -38.9034
lclavicle 3.53837e-014 2.10712e-014
lhumerus -19.9446 -45.1025 75.3938
lradius 88.1939
lwrist 14.5645
lhand -25.6516 -19.2422
lfingers 7.12502
lthumb 0.882258 10.7357
rfemur -49.489 -32.8095 6.24308
rtibia 79.5885
rfoot -27.032 -1.98919
rtoes -20.9673
lfemur -65.7846 16.3326 -15.3525
ltibia 80.9505
lfoot -25.1218 8.98089
ltoes -10.6712
370
root -14.561 13.6136 0.332553 -171.223 82.4171 172.556
lowerback 25.1435 1.6668 -7.52117
upperback 5.42825 0.590493 -1.39385
thorax -7.96672 0.622986 2.55688
lowerneck -20.6978 -0.541543 -7.22971
upperneck 13.9531 0.435551 5.04811
head 7.65706 0.32191 2.91245
rclavicle 2.26615e-014 1.86858e-014
rhumerus -12.9537 42.9555 -62.6453
rradius 106.923
rwrist -26.7926
rhand -25.9197 -6.86329
rfingers 7.12502
rthumb 0.623288 -36.8421
lclavicle 2.26615e-014 1.86858e-014
lhumerus -19.6889 -43.3955 75.1067
lradius 88.4248
lwrist 15.1894
lhand -26.0412 -19.6262
lfingers 7.12502
lthumb 0.505923 10.3529
rfemur -49.3035 -32.0234 6.00753
rtibia 78.6094
rfoot -26.8581 -1.85724
rtoes -20.6469
lfemur -65.1726 16.5771 -15.5457
ltibia 80.7892
lfoot -25.3209 10.0837
ltoes -11.6073
371
root -14.5435 13.6539 0.266183 -172.513 83.3422 171.189
lowerback 24.9295 1.47519 -7.16038
upperback 5.54752 0.465345 -1.32617
thorax -7.7137 0.545672 2.46969
lowerneck -20.953 -0.42564 -6.99702
upperneck 13.9931 0.621485 4.6197
head 7.7033 0.381182 2.75581
rclavicle -7.95139e-016 -6.75868e-015
rhumerus -16.5925 41.4093 -66.8426
rradius 105.669
rwrist -27.5131
rhand -25.2443 -10.9694
rfingers 7.12502
rthumb 1.27564 -40.9453
lclavicle -7.95139e-016 -6.75868e-015
lhumerus -18.9643 -41.8993 74.341
lradius 88.7944
lwrist 16.0556
lhand -26.4825 -20.0089
lfingers 7.12502
lthumb 0.0797685 9.9708
rfemur -49.2539 -31.4642 5.77943
rtibia 77.7407
rfoot -26.6648 -1.97619
rtoes -21.7839
lfemur -64.7435 16.5683 -15.769
ltibia 80.6409
lfoot -25.5968 11.0821
ltoes -12.0096
372
root -14.5222 13.682 0.200246 -173.766 84.1935 169.787
lowerback 24.6382 1.171 -6.75359
upperback 5.57067 0.19784 -1.23922
thorax -7.51797 0.400555 2.41945
lowerneck -20.9654 -0.235341 -6.9526
upperneck 13.9602 0.951877 4.16896
head 7.67677 0.495171 2.63648
rclavicle -1.94809e-014 1.27222e-014
rhumerus -19.4051 40.1999 -70.369
rradius 103.819
rwrist -27.878
rhand -15.4373 -19.0635
rfingers 7.12502
rthumb 10.743 -48.7689
lclavicle -1.94809e-014 1.27222e-014
lhumerus -18.8305 -39.8941 73.9194
lradius 89.3938
lwrist 16.843
lhand -27.1495 -20.1416
lfingers 7.12502
lthumb -0.564475 9.83741
rfemur -49.0424 -30.9478 5.55404
rtibia 76.8503
rfoot -26.5974 -1.84047
rtoes -21.7932
lfemur -64.4305 16.4916 -15.941
ltibia 80.5361
lfoot -25.9704 11.8703
ltoes -11.9113
